<svg width="221" height="51" viewBox="0 0 221 51" fill="none" xmlns="http://www.w3.org/2000/svg">
<path d="M48.4603 7.128C49.2923 3.608 51.3723 1.976 54.7003 2.232C55.2123 2.296 55.7243 2.392 56.2363 2.52C56.8123 2.648 57.4523 2.808 58.1562 3C59.8203 3.512 60.7483 4.184 60.9403 5.016C61.1963 5.848 61.1643 6.904 60.8443 8.184C60.1403 11 59.3723 13.944 58.5403 17.016C57.7723 20.024 57.0043 23 56.2363 25.944C55.4683 28.824 54.7003 31.576 53.9323 34.2C53.1643 36.76 52.4923 39.032 51.9163 41.016C51.1483 43.448 50.2843 45.368 49.3243 46.776C48.3643 48.184 46.7963 48.888 44.6203 48.888C43.0843 48.888 41.8683 48.472 40.9723 47.64C40.1403 46.808 39.4683 45.592 38.9563 43.992L31.4683 19.512L25.6123 38.232C25.1003 39.704 24.6203 41.08 24.1723 42.36C23.7243 43.64 23.1803 44.76 22.5403 45.72C21.9643 46.616 21.2603 47.32 20.4283 47.832C19.6603 48.344 18.6683 48.6 17.4523 48.6C16.3643 48.6 15.1483 48.312 13.8043 47.736C12.4603 47.16 11.4363 45.752 10.7323 43.512L0.65225 7.224C0.33225 6.328 0.23625 5.592 0.36425 5.016C0.55625 4.376 1.03625 3.896 1.80425 3.576C2.44425 3.32 3.11625 3.128 3.82025 3C4.58825 2.872 5.35625 2.744 6.12425 2.616C7.59625 2.424 8.78025 2.552 9.67625 3C10.5723 3.384 11.2763 3.992 11.7883 4.824C12.3643 5.592 12.8123 6.52 13.1323 7.608C13.5163 8.696 13.8683 9.752 14.1883 10.776C14.4443 11.544 14.7643 12.6 15.1483 13.944C15.5323 15.288 15.9483 16.792 16.3963 18.456C16.9083 20.12 17.4203 21.944 17.9323 23.928C18.5083 25.848 19.0843 27.8 19.6603 29.784L26.0923 9.048C26.5403 7.64 26.9563 6.52 27.3403 5.688C27.7883 4.856 28.2043 4.216 28.5883 3.768C29.0363 3.256 29.4843 2.936 29.9323 2.808C30.4443 2.616 30.9563 2.52 31.4683 2.52C32.6203 2.52 33.5803 3.064 34.3483 4.152C35.1803 5.176 35.9483 6.712 36.6523 8.76L42.9883 27.96L48.4603 7.128ZM96.1423 33.432C90.3823 33.88 84.4623 34.072 78.3823 34.008C78.5743 35.8 78.8943 37.272 79.3423 38.424C79.8543 39.576 80.4303 40.472 81.0703 41.112C81.7743 41.752 82.5103 42.2 83.2783 42.456C84.1103 42.712 84.9423 42.84 85.7743 42.84C87.1823 42.84 88.4623 42.648 89.6143 42.264C90.8303 41.816 92.3983 40.856 94.3183 39.384C94.6383 39.128 94.9903 38.872 95.3743 38.616C95.8223 38.296 96.2703 38.104 96.7183 38.04C97.2303 37.912 97.7103 38.008 98.1583 38.328C98.6703 38.584 99.1503 39.128 99.5983 39.96C99.9183 40.536 99.8863 41.08 99.5023 41.592C99.1823 42.04 98.8303 42.488 98.4463 42.936C96.4623 45.048 94.1903 46.584 91.6302 47.544C89.0703 48.504 86.6383 48.984 84.3343 48.984C78.6383 48.984 74.2543 47.384 71.1823 44.184C68.1743 40.984 66.6703 36.568 66.6703 30.936C66.6703 28.376 67.0223 25.976 67.7263 23.736C68.4943 21.496 69.5823 19.544 70.9903 17.88C72.4623 16.152 74.2543 14.808 76.3663 13.848C78.4783 12.888 80.8783 12.408 83.5663 12.408C85.9983 12.408 88.2383 12.792 90.2863 13.56C92.3983 14.264 94.1903 15.32 95.6623 16.728C97.1983 18.136 98.3823 19.896 99.2143 22.008C100.11 24.12 100.558 26.52 100.558 29.208C100.558 30.488 100.238 31.48 99.5983 32.184C98.9583 32.888 97.8063 33.304 96.1423 33.432ZM83.9503 18.552C82.4143 18.552 81.1023 19.352 80.0143 20.952C78.9903 22.488 78.3823 24.984 78.1903 28.44C80.4303 28.504 82.7023 28.504 85.0063 28.44C87.3103 28.376 88.9103 28.28 89.8063 28.152C89.8063 25.464 89.3903 23.192 88.5583 21.336C87.7263 19.48 86.1903 18.552 83.9503 18.552ZM107.485 6.84C107.485 5.176 107.741 4.024 108.253 3.384C108.765 2.744 109.917 2.424 111.709 2.424C115.229 2.36 118.813 2.424 122.461 2.616C126.109 2.744 129.437 3.352 132.445 4.44C135.453 5.528 137.917 7.256 139.837 9.624C141.757 11.992 142.749 15.352 142.813 19.704C142.813 22.52 142.173 24.984 140.893 27.096C139.613 29.144 137.949 30.84 135.901 32.184C133.917 33.528 131.645 34.456 129.085 34.968C126.589 35.48 124.061 35.576 121.501 35.256C121.437 36.792 121.373 38.264 121.309 39.672C121.245 41.08 121.149 42.328 121.021 43.416C120.893 44.44 120.541 45.368 119.965 46.2C119.389 46.968 118.557 47.512 117.469 47.832C116.573 48.152 115.549 48.344 114.397 48.408C113.309 48.408 112.125 48.376 110.845 48.312C109.629 48.248 108.861 48.056 108.541 47.736C108.221 47.416 108.029 46.648 107.965 45.432C107.901 43.32 107.837 40.632 107.773 37.368C107.709 34.04 107.645 30.552 107.581 26.904C107.581 23.256 107.549 19.672 107.485 16.152C107.485 12.568 107.485 9.464 107.485 6.84ZM131.197 19.224C131.197 16.728 130.333 14.68 128.605 13.08C126.877 11.48 124.509 10.648 121.501 10.584C121.565 12.824 121.597 15.448 121.597 18.456C121.661 21.4 121.661 24.44 121.597 27.576C124.349 27.96 126.621 27.448 128.413 26.04C130.269 24.568 131.197 22.296 131.197 19.224ZM178.736 33.432C172.976 33.88 167.056 34.072 160.976 34.008C161.168 35.8 161.488 37.272 161.936 38.424C162.448 39.576 163.024 40.472 163.664 41.112C164.368 41.752 165.104 42.2 165.872 42.456C166.704 42.712 167.536 42.84 168.368 42.84C169.776 42.84 171.056 42.648 172.208 42.264C173.424 41.816 174.992 40.856 176.912 39.384C177.232 39.128 177.584 38.872 177.968 38.616C178.416 38.296 178.864 38.104 179.312 38.04C179.824 37.912 180.304 38.008 180.752 38.328C181.264 38.584 181.744 39.128 182.192 39.96C182.512 40.536 182.48 41.08 182.096 41.592C181.776 42.04 181.424 42.488 181.04 42.936C179.056 45.048 176.784 46.584 174.224 47.544C171.664 48.504 169.232 48.984 166.928 48.984C161.232 48.984 156.848 47.384 153.776 44.184C150.768 40.984 149.264 36.568 149.264 30.936C149.264 28.376 149.616 25.976 150.32 23.736C151.088 21.496 152.176 19.544 153.584 17.88C155.056 16.152 156.848 14.808 158.96 13.848C161.072 12.888 163.472 12.408 166.16 12.408C168.592 12.408 170.832 12.792 172.88 13.56C174.992 14.264 176.784 15.32 178.256 16.728C179.792 18.136 180.976 19.896 181.808 22.008C182.704 24.12 183.152 26.52 183.152 29.208C183.152 30.488 182.832 31.48 182.192 32.184C181.552 32.888 180.4 33.304 178.736 33.432ZM166.544 18.552C165.008 18.552 163.696 19.352 162.608 20.952C161.584 22.488 160.976 24.984 160.784 28.44C163.024 28.504 165.296 28.504 167.6 28.44C169.904 28.376 171.504 28.28 172.4 28.152C172.4 25.464 171.984 23.192 171.152 21.336C170.32 19.48 168.784 18.552 166.544 18.552ZM208.703 14.904C210.495 14.904 212.191 14.936 213.791 15C215.391 15 216.703 15 217.727 15C219.007 15 219.807 15.256 220.127 15.768C220.447 16.216 220.607 16.984 220.607 18.072C220.607 19.736 219.775 20.984 218.111 21.816C216.511 22.584 214.271 23.032 211.391 23.16C211.071 23.16 210.655 23.192 210.143 23.256C209.695 23.256 209.215 23.256 208.703 23.256V29.208C208.703 30.104 208.735 30.936 208.799 31.704C208.799 33.88 208.895 35.704 209.087 37.176C209.343 38.584 209.791 39.768 210.431 40.728C211.135 41.688 212.063 42.488 213.215 43.128C214.367 43.704 215.903 44.248 217.823 44.76C218.207 44.888 218.431 45.08 218.495 45.336C218.623 45.528 218.687 45.88 218.687 46.392C218.687 47.096 218.655 47.672 218.591 48.12C218.527 48.568 218.431 48.952 218.303 49.272C218.047 50.04 217.503 50.424 216.671 50.424C214.367 50.424 211.967 50.232 209.471 49.848C206.975 49.4 204.671 48.504 202.559 47.16C200.511 45.752 198.815 43.768 197.471 41.208C196.191 38.648 195.551 35.224 195.551 30.936C195.487 30.296 195.455 29.56 195.455 28.728V23.256H191.039C189.695 23.256 188.639 23.096 187.871 22.776C187.103 22.392 186.687 21.4 186.623 19.8C186.623 19.416 186.623 19 186.623 18.552C186.687 18.104 186.719 17.72 186.719 17.4C186.719 16.76 186.879 16.184 187.199 15.672C187.519 15.16 188.607 14.904 190.463 14.904H195.359V4.152C195.359 2.872 195.551 2.008 195.935 1.56C196.383 1.048 197.151 0.792 198.239 0.792C199.007 0.792 200.095 0.855999 201.503 0.983997C202.911 1.048 204.063 1.176 204.959 1.368C206.111 1.624 207.007 2.072 207.647 2.712C208.351 3.352 208.703 4.536 208.703 6.264V14.904Z" fill="#53DBA1"/>
</svg>
